<?xml version="1.0" standalone="no"?>
<!DOCTYPE svg PUBLIC "-//W3C//DTD SVG 20010904//EN"
 "http://www.w3.org/TR/2001/REC-SVG-20010904/DTD/svg10.dtd">
<svg version="1.0" xmlns="http://www.w3.org/2000/svg"
 width="555.000000pt" height="775.000000pt" viewBox="0 0 555.000000 775.000000"
 preserveAspectRatio="xMidYMid meet">

<g transform="translate(0.000000,775.000000) scale(0.100000,-0.100000)"
fill="#000000" stroke="none">
<path d="M0 3875 l0 -3875 876 0 c526 0 873 4 870 9 -4 5 0 12 6 15 7 3 4 4
-7 3 -15 -1 -21 5 -22 23 -1 14 0 19 3 13 3 -7 10 -13 15 -13 6 0 7 5 3 11 -4
7 -8 30 -9 52 -1 21 1 34 5 27 5 -7 12 -3 23 14 21 31 22 42 3 27 -11 -9 -15
-6 -19 16 -9 47 17 70 76 65 9 -1 17 3 17 8 0 6 5 10 11 10 6 0 9 -7 6 -15 -8
-20 8 -28 23 -10 16 20 30 19 30 -1 0 -14 3 -14 15 -4 18 15 31 5 37 -25 2
-12 11 -20 23 -20 11 0 24 -9 28 -20 7 -16 10 -17 18 -5 8 13 10 13 18 1 5 -8
16 -11 24 -8 8 3 19 1 25 -5 17 -17 83 -37 101 -31 12 5 13 3 5 -6 -7 -7 -9
-21 -7 -31 5 -18 6 -18 21 -3 11 10 17 12 20 4 2 -6 9 -8 14 -4 7 4 9 -2 6
-15 -4 -12 -2 -22 3 -22 5 0 9 -7 9 -15 0 -8 5 -15 10 -15 20 0 10 -19 -12
-23 -13 -2 721 -5 1630 -6 l1653 -1 -2 45 c-2 29 -7 45 -16 45 -7 0 -10 -6 -6
-16 4 -12 2 -15 -8 -12 -8 3 -13 14 -11 24 10 58 16 74 28 85 18 15 18 85 0
92 -16 6 -75 -52 -71 -71 2 -7 1 -8 -2 -2 -3 6 -29 -10 -59 -35 -30 -26 -54
-42 -54 -37 0 10 78 88 158 157 l42 37 0 3719 0 3719 -2775 0 -2775 0 0 -3875z
m4451 3562 c-13 -13 -26 -3 -16 12 3 6 11 8 17 5 6 -4 6 -10 -1 -17z m-4171
-131 c0 -3 -4 -8 -10 -11 -5 -3 -10 -1 -10 4 0 6 5 11 10 11 6 0 10 -2 10 -4z
m3345 -53 c90 -5 144 -21 172 -50 22 -22 50 -32 38 -13 -12 19 55 -12 77 -36
13 -14 35 -32 51 -40 15 -8 27 -21 27 -29 0 -9 10 -15 24 -15 13 0 27 -7 30
-16 3 -9 11 -12 18 -8 8 5 9 2 5 -9 -4 -11 2 -22 18 -33 14 -9 25 -23 25 -30
0 -8 12 -24 26 -37 32 -28 52 -65 69 -131 17 -67 21 -108 11 -124 -4 -7 -4
-22 0 -35 4 -12 7 -42 6 -67 0 -25 4 -50 10 -57 5 -7 7 -21 3 -32 -3 -12 -3
-26 1 -32 4 -7 8 -27 10 -45 2 -18 12 -53 24 -78 22 -50 36 -106 26 -106 -3 0
-15 9 -26 20 -27 27 -48 25 -94 -6 -21 -15 -51 -33 -65 -40 -20 -11 -22 -14
-8 -14 14 0 17 -5 12 -22 -4 -13 -16 -33 -27 -44 -17 -19 -18 -25 -6 -43 7
-12 21 -21 30 -21 10 0 18 -3 19 -7 7 -52 3 -93 -8 -93 -7 0 -13 5 -13 10 0 6
-4 10 -10 10 -5 0 -10 -7 -10 -15 0 -8 -9 -24 -20 -35 -23 -23 -26 -40 -6 -40
8 0 16 10 18 23 2 16 11 23 31 25 15 2 27 8 27 13 0 5 7 9 15 9 18 0 20 17 3
23 -10 4 -10 7 0 18 10 11 12 11 12 -1 0 -13 2 -13 10 0 22 35 4 130 -25 130
-8 0 -15 7 -15 15 0 8 4 15 10 15 5 0 16 14 25 30 18 35 37 38 65 10 11 -11
20 -17 21 -12 1 4 7 -13 14 -38 l13 -45 2 45 c1 25 2 51 1 59 -2 7 4 11 11 9
31 -10 15 -137 -26 -212 -11 -21 -25 -47 -31 -57 -5 -10 -19 -22 -32 -28 -15
-7 -23 -19 -23 -36 0 -15 -14 -39 -36 -62 -35 -35 -37 -36 -50 -18 -8 10 -14
13 -14 7 0 -7 -9 -12 -20 -12 -11 0 -20 4 -20 8 0 5 9 17 20 27 27 24 25 30
-10 30 -27 0 -30 -4 -41 -50 -15 -70 -32 -115 -41 -115 -11 0 -10 28 1 67 5
18 6 35 1 38 -4 3 1 23 11 45 25 51 40 131 33 170 -4 20 0 40 14 64 l20 34
-33 32 -33 32 4 -29 c2 -15 1 -20 -2 -10 -3 9 -9 17 -13 17 -14 0 -29 -23 -24
-36 2 -7 -5 -19 -16 -26 -12 -7 -21 -21 -21 -31 0 -16 -2 -16 -22 3 -13 12
-24 16 -26 10 -2 -5 -11 -10 -20 -10 -21 0 -50 -42 -33 -48 6 -2 11 -10 11
-18 0 -20 27 -17 50 6 11 11 25 20 32 20 6 0 2 -9 -10 -20 -24 -22 -31 -65 -9
-57 6 2 12 9 12 16 0 13 24 31 40 31 6 -1 2 -5 -8 -11 -21 -12 -13 -29 14 -29
24 0 25 -16 2 -29 -17 -10 -17 -10 -1 -11 14 0 13 -4 -8 -27 -16 -17 -21 -29
-13 -33 7 -5 5 -9 -6 -13 -9 -4 -13 -3 -10 3 3 6 -3 10 -14 10 -10 0 -22 6
-25 13 -5 10 -7 10 -12 0 -3 -7 -12 -13 -19 -13 -7 0 -15 -6 -18 -12 -3 -10
-9 -10 -25 -1 -26 15 -35 4 -17 -21 12 -16 17 -17 44 -5 17 8 31 20 31 26 0
18 7 16 32 -6 23 -22 18 -51 -8 -51 -10 0 -14 -5 -10 -15 3 -8 1 -25 -4 -37
-5 -13 -10 -20 -11 -15 -1 4 -3 12 -4 17 -1 6 -3 15 -4 20 0 6 -9 11 -18 11
-17 1 -17 2 0 6 9 2 17 10 17 16 0 16 -119 19 -135 4 -7 -6 -10 -19 -7 -29 5
-22 -11 -24 -28 -3 -9 11 -9 15 -1 15 8 0 6 11 -6 32 -24 43 -47 65 -61 60 -7
-2 -12 2 -12 10 -1 7 -11 25 -23 39 -25 29 -123 103 -149 112 -21 7 -35 -11
-15 -19 9 -3 21 -20 28 -37 7 -18 24 -42 38 -54 14 -12 22 -22 18 -23 -4 0 4
-12 18 -27 14 -16 23 -34 20 -41 -2 -7 2 -15 10 -18 8 -4 15 -10 15 -15 0 -15
72 -74 88 -72 8 0 11 -5 8 -14 -6 -16 17 -57 27 -47 3 3 1 14 -5 24 -10 15 -6
23 20 45 18 15 32 33 32 41 0 16 15 17 45 4 17 -7 17 -9 3 -9 -18 -1 -26 -21
-9 -21 4 0 6 -10 4 -23 -4 -19 -10 -22 -38 -19 -43 5 -49 -8 -20 -43 20 -22
36 -29 75 -33 46 -4 82 -22 45 -22 -19 0 -45 -23 -45 -40 0 -6 8 -10 17 -8 10
2 19 -5 21 -16 3 -12 0 -16 -8 -11 -17 11 -31 -15 -19 -37 7 -14 3 -20 -21
-33 -16 -8 -30 -22 -30 -30 0 -8 -7 -15 -15 -15 -8 0 -15 5 -15 10 0 6 -10 4
-22 -4 -13 -8 -40 -14 -61 -14 -21 0 -46 -7 -55 -15 -9 -8 -31 -17 -49 -20
-17 -3 -35 -7 -40 -10 -5 -3 -36 -8 -70 -11 -47 -4 -66 -2 -77 9 -18 19 -27
19 -20 1 3 -7 -1 -16 -9 -19 -21 -8 -82 8 -79 21 1 7 -6 12 -16 12 -15 0 -18
7 -17 30 1 16 -2 27 -7 24 -4 -3 -8 1 -8 8 0 9 -3 9 -10 -2 -9 -13 -10 -13
-10 0 0 32 13 58 30 63 15 4 17 10 11 40 -5 19 -11 39 -15 45 -18 30 107 60
248 60 54 0 103 5 108 10 13 13 38 4 38 -14 0 -8 7 -14 15 -14 34 0 7 110 -31
124 -11 4 -15 2 -11 -7 3 -7 -1 -21 -9 -32 -13 -18 -14 -18 -14 3 0 33 -42 46
-108 35 -59 -11 -64 -8 -65 43 -1 38 -14 46 -19 12 -4 -30 -34 -35 -41 -7 -5
17 -2 20 14 16 11 -3 19 0 19 7 0 7 20 25 45 40 27 17 45 36 45 47 0 17 -6 18
-52 13 -111 -13 -200 -10 -206 6 -3 8 -12 20 -19 25 -14 11 -3 39 13 33 5 -1
11 10 12 27 2 16 8 33 13 36 5 3 11 53 13 111 3 59 10 116 16 128 9 16 9 25 0
35 -7 8 -9 19 -5 24 3 6 1 20 -6 32 -10 20 -12 21 -21 5 -12 -22 -28 -11 -28
19 0 13 -4 27 -10 30 -5 3 -10 1 -10 -4 0 -6 -5 -11 -11 -11 -6 0 -8 7 -5 16
3 8 2 12 -4 9 -6 -3 -10 2 -10 12 0 14 -2 15 -9 4 -10 -16 -31 -6 -31 14 0 18
-30 28 -46 14 -8 -6 -14 -20 -14 -31 0 -31 -19 -17 -40 30 -18 39 -18 42 -2
52 12 6 13 9 3 10 -9 0 -11 7 -8 21 3 12 0 22 -9 26 -8 3 -14 14 -14 25 0 11
4 16 11 12 7 -4 9 0 5 13 -5 14 0 23 16 32 13 6 15 9 6 7 -14 -4 -16 1 -11 30
4 27 2 34 -11 34 -9 0 -16 5 -16 10 0 6 7 10 16 10 10 0 13 6 10 18 -4 11 2
27 14 40 11 11 20 26 20 32 0 5 4 10 9 10 5 0 15 16 21 35 6 19 16 34 22 32 6
-1 13 4 15 11 3 7 -4 12 -19 12 -34 0 -32 36 3 50 29 12 55 52 45 68 -3 6 2
13 12 16 10 4 28 20 40 36 13 17 29 30 37 30 7 0 17 9 20 20 5 15 12 19 26 15
15 -5 19 -2 19 14 0 14 6 21 20 21 11 0 20 5 20 11 0 7 16 8 45 3 30 -4 50 -2
60 6 8 7 26 9 42 6 15 -3 42 -2 58 3 17 5 37 7 45 4 8 -3 47 -7 85 -10z
m-3285 -3 c0 -5 -4 -10 -10 -10 -5 0 -10 5 -10 10 0 6 5 10 10 10 6 0 10 -4
10 -10z m110 -386 c0 -8 -5 -12 -10 -9 -6 4 -8 11 -5 16 9 14 15 11 15 -7z
m2506 -151 c-10 -10 -19 5 -10 18 6 11 8 11 12 0 2 -7 1 -15 -2 -18z m-83 -23
c-7 -28 -13 -25 -13 6 0 14 4 23 9 20 5 -3 7 -15 4 -26z m179 -222 c-7 -7 -12
-21 -12 -32 -1 -20 -1 -20 -12 -2 -9 15 -7 22 8 33 22 16 32 17 16 1z m18 -39
c0 -5 -4 -9 -10 -9 -5 0 -10 7 -10 16 0 8 5 12 10 9 6 -3 10 -10 10 -16z m50
-238 c0 -11 3 -27 7 -37 4 -12 3 -15 -5 -10 -8 5 -12 0 -12 -13 0 -12 -1 -21
-3 -21 -1 0 -17 -4 -36 -10 -30 -8 -33 -7 -28 10 5 21 -17 28 -28 10 -10 -17
-25 -1 -21 23 3 12 5 28 5 35 1 6 10 12 22 12 12 0 17 -4 14 -11 -4 -6 10 -1
31 10 49 25 54 25 54 2z m-126 -113 c-4 -6 1 -8 15 -3 15 5 21 2 21 -10 0 -9
4 -14 9 -10 5 3 16 -4 24 -16 15 -20 35 -10 22 11 -3 6 -1 10 4 10 6 0 11 -13
11 -30 0 -20 -5 -30 -15 -30 -8 0 -16 -7 -16 -15 -2 -24 -4 -29 -14 -46 -16
-25 -40 -29 -53 -8 -7 10 -20 19 -30 19 -13 0 -14 2 -4 9 11 7 11 9 -2 14 -9
4 -13 13 -10 22 4 8 2 21 -4 28 -7 8 -7 23 1 49 10 31 14 35 29 27 10 -6 16
-15 12 -21z m890 -23 c-6 -16 -24 -21 -24 -7 0 11 11 22 21 22 5 0 6 -7 3 -15z
m-29 -25 c3 -5 1 -10 -4 -10 -6 0 -11 5 -11 10 0 6 2 10 4 10 3 0 8 -4 11 -10z
m155 -14 c0 -3 -4 -8 -10 -11 -5 -3 -10 -1 -10 4 0 6 5 11 10 11 6 0 10 -2 10
-4z m5 -36 c3 -5 2 -10 -4 -10 -5 0 -13 5 -16 10 -3 6 -2 10 4 10 5 0 13 -4
16 -10z m-999 -107 c-10 -10 -19 5 -10 18 6 11 8 11 12 0 2 -7 1 -15 -2 -18z
m969 7 c-3 -5 -10 -10 -16 -10 -5 0 -9 5 -9 10 0 6 7 10 16 10 8 0 12 -4 9
-10z m935 -76 c0 -16 -16 -19 -25 -4 -8 13 4 32 16 25 5 -4 9 -13 9 -21z
m-4590 6 c0 -5 -4 -10 -10 -10 -5 0 -10 5 -10 10 0 6 5 10 10 10 6 0 10 -4 10
-10z m2970 -31 c0 -14 -5 -19 -14 -16 -8 3 -16 1 -18 -5 -7 -21 -37 0 -31 21
8 30 63 30 63 0z m660 1 c0 -5 -7 -10 -15 -10 -8 0 -15 5 -15 10 0 6 7 10 15
10 8 0 15 -4 15 -10z m-17 -27 c-7 -2 -13 -12 -13 -20 0 -9 -3 -14 -6 -10 -10
10 4 37 18 36 10 0 10 -2 1 -6z m-703 -12 c0 -6 -4 -13 -10 -16 -5 -3 -10 1
-10 9 0 9 5 16 10 16 6 0 10 -4 10 -9z m585 -1 c-3 -5 -13 -10 -21 -10 -8 0
-14 5 -14 10 0 6 9 10 21 10 11 0 17 -4 14 -10z m-555 -20 c0 -5 -4 -10 -10
-10 -5 0 -10 5 -10 10 0 6 5 10 10 10 6 0 10 -4 10 -10z m756 -45 c15 -14 33
-25 40 -25 8 0 11 -6 7 -17 -9 -25 3 -13 22 22 l16 30 -7 -35 c-9 -47 -13 -53
-35 -47 -12 3 -19 0 -19 -8 0 -9 8 -11 22 -7 22 5 22 5 -2 -20 -14 -14 -32
-34 -40 -44 -9 -11 -31 -32 -50 -47 -25 -21 -28 -25 -10 -16 14 7 42 29 62 51
45 45 63 48 76 11 13 -39 -5 -85 -72 -185 -129 -191 -170 -243 -204 -253 -17
-5 -32 -15 -32 -22 0 -7 -9 -13 -21 -13 -52 0 -169 -85 -169 -123 0 -40 -14
-48 -81 -50 -51 -2 -63 -5 -60 -17 12 -47 12 -60 2 -60 -16 0 -62 51 -55 61 3
5 0 9 -5 9 -6 0 -11 7 -11 15 0 25 -89 19 -143 -9 -33 -18 -70 -27 -131 -32
l-86 -7 0 29 c1 26 18 83 48 157 7 16 12 33 12 38 0 5 4 9 9 9 5 0 12 17 16
38 10 64 20 71 52 36 15 -17 44 -50 63 -74 19 -24 57 -65 85 -92 43 -41 52
-46 64 -33 18 18 87 132 102 168 6 15 17 27 25 27 8 0 14 9 14 20 0 18 15 37
52 65 19 15 149 95 153 95 2 0 38 21 80 46 50 30 75 52 75 64 0 10 -5 20 -12
22 -7 3 4 20 27 42 45 44 64 77 69 118 1 15 6 31 9 35 4 3 7 17 7 30 0 29 3
29 36 -2z m-271 5 c3 -5 1 -10 -4 -10 -6 0 -11 5 -11 10 0 6 2 10 4 10 3 0 8
-4 11 -10z m219 -5 c-4 -8 -7 -15 -9 -15 -2 0 -5 7 -9 15 -3 9 0 15 9 15 9 0
12 -6 9 -15z m-829 -179 c14 -13 10 -56 -5 -56 -10 0 -20 26 -20 51 0 23 6 24
25 5z m629 -511 c-4 -10 -20 -15 -46 -15 -35 0 -39 2 -28 15 7 8 28 15 46 15
26 0 32 -4 28 -15z m-84 -67 c-13 -5 -25 -6 -29 -3 -9 10 21 24 37 17 12 -4
10 -7 -8 -14z m-344 -113 c8 -19 14 -41 14 -50 0 -25 -28 -17 -47 15 -9 17
-21 30 -25 30 -5 0 -5 43 1 58 5 12 45 -26 57 -53z m249 46 c-6 -5 -21 -12
-35 -16 -22 -7 -23 -6 -11 9 7 9 23 16 34 16 13 0 17 -4 12 -9z m65 -50 c0 -5
-20 -43 -44 -84 -24 -40 -63 -112 -87 -158 -38 -75 -74 -135 -89 -149 -16 -14
-97 -128 -103 -143 -4 -10 -11 -15 -17 -12 -5 3 -10 -1 -10 -9 0 -9 -4 -16
-10 -16 -5 0 -16 -12 -24 -27 -21 -39 -80 -103 -94 -103 -7 0 -12 -7 -12 -15
0 -8 -4 -15 -10 -15 -20 0 -9 33 29 83 28 36 36 54 28 59 -8 5 -6 8 5 8 23 0
58 30 58 50 0 12 -2 13 -9 1 -12 -18 -42 -6 -35 14 13 32 -67 2 -94 -36 -10
-14 -18 -17 -24 -11 -7 7 -3 20 11 41 37 51 141 161 154 161 4 0 7 7 7 15 0 8
5 15 11 15 7 0 8 18 4 53 -3 28 -2 57 2 63 4 6 33 26 63 45 30 18 89 60 130
94 41 33 86 66 100 72 31 14 60 16 60 4z m-428 -64 c17 -28 23 -87 9 -87 -7 0
-16 11 -21 24 -5 13 -14 27 -19 31 -6 3 -11 19 -11 35 0 34 20 32 42 -3z m58
9 c0 -3 -4 -8 -10 -11 -5 -3 -10 -1 -10 4 0 6 5 11 10 11 6 0 10 -2 10 -4z
m-35 -147 c-4 -5 -11 -9 -17 -9 -6 0 -19 -6 -27 -13 -17 -15 -99 -47 -119 -47
-7 0 -9 7 -5 18 9 22 22 35 53 48 31 14 123 17 115 3z m-138 -114 c-4 -8 -11
-15 -17 -15 -6 0 -6 7 2 20 14 22 24 19 15 -5z m163 -2 c0 -16 -55 -63 -74
-63 -12 0 -39 -7 -61 -15 -56 -20 -76 -19 -68 3 8 21 35 42 46 35 4 -3 16 -1
25 3 77 34 132 49 132 37z m-147 -428 c-3 -9 -8 -14 -10 -11 -3 3 -2 9 2 15 9
16 15 13 8 -4z m992 -400 c17 -13 45 -37 64 -55 30 -29 32 -34 18 -45 -9 -6
-62 -19 -119 -29 -57 -10 -143 -29 -193 -42 -107 -29 -125 -30 -125 -7 0 55
115 154 220 189 71 23 91 22 135 -11z m-3195 -265 c0 -5 -7 -10 -16 -10 -8 0
-12 5 -9 10 3 6 10 10 16 10 5 0 9 -4 9 -10z m1970 -715 c-7 -9 -15 -13 -18
-10 -3 2 1 11 8 20 7 9 15 13 18 10 3 -2 -1 -11 -8 -20z m-49 -68 c-16 -16
-26 0 -10 19 9 11 15 12 17 4 2 -6 -1 -17 -7 -23z m-21 -27 c0 -5 -4 -10 -10
-10 -5 0 -10 5 -10 10 0 6 5 10 10 10 6 0 10 -4 10 -10z m-1305 -179 c50 -22
109 -86 125 -136 19 -59 7 -134 -35 -215 -52 -97 -70 -95 -39 5 37 122 -25
246 -139 280 -46 14 -107 20 -107 12 0 -2 17 -22 39 -45 21 -23 50 -72 66
-110 15 -37 34 -83 43 -102 16 -37 17 -122 1 -152 -7 -14 -6 -18 6 -18 21 0
19 -13 -5 -35 -11 -10 -25 -36 -31 -58 -21 -80 -27 -89 -49 -77 -16 9 -20 8
-20 -4 0 -9 6 -13 14 -10 8 3 15 -3 18 -14 4 -15 113 -110 223 -194 22 -17 23
-17 98 60 41 42 86 89 98 104 25 28 163 94 221 105 18 3 38 9 43 14 6 4 38 14
71 23 34 9 80 24 103 35 49 21 114 14 159 -17 73 -50 311 -132 389 -134 46 0
61 -5 74 -21 15 -19 15 -25 2 -70 -11 -39 -12 -52 -3 -57 7 -4 9 -13 5 -19 -5
-9 -10 -9 -21 0 -11 9 -14 8 -14 -4 0 -8 25 -34 55 -57 30 -23 55 -47 55 -53
0 -6 12 -24 27 -39 15 -15 21 -28 15 -28 -7 0 -12 5 -12 11 0 5 -5 7 -12 3 -9
-6 -9 -9 -1 -11 7 -3 9 -11 6 -19 -6 -17 13 -19 21 -1 3 6 3 2 1 -9 -3 -13 1
-28 10 -37 22 -22 19 -36 -11 -47 -14 -6 -23 -14 -20 -19 3 -5 -8 -14 -25 -21
-19 -8 -26 -16 -19 -20 8 -5 1 -15 -19 -29 -38 -27 -161 -39 -161 -16 0 10
-11 12 -41 8 -26 -4 -44 -2 -48 6 -5 8 -32 11 -82 9 l-74 -3 130 -33 c72 -17
142 -32 157 -32 43 0 42 -18 -2 -31 -43 -13 -56 -34 -15 -27 14 3 30 -1 37 -9
6 -8 17 -12 24 -9 8 3 19 -5 25 -17 7 -12 23 -35 35 -50 25 -30 31 -57 13 -57
-6 0 -25 -6 -42 -14 -29 -13 -134 -33 -457 -86 -63 -10 -158 -26 -210 -34
-168 -28 -224 -36 -285 -42 -33 -3 -85 -9 -115 -14 -40 -7 -69 -6 -105 4 -28
7 -65 11 -83 8 -29 -4 -59 5 -157 48 -11 5 -54 24 -95 43 -41 19 -103 47 -137
61 -35 14 -87 37 -117 51 -30 14 -57 25 -60 25 -4 0 -25 9 -49 19 -76 35 -119
51 -138 51 -14 0 -21 9 -25 30 -7 32 -8 33 -39 21 -11 -5 -25 -4 -31 0 -8 6
-14 4 -18 -6 -3 -8 -1 -15 4 -15 15 0 12 -37 -2 -44 -10 -5 -10 -7 -1 -12 8
-4 9 -13 3 -28 -5 -15 -5 -27 3 -35 8 -8 4 -18 -14 -37 -43 -47 -58 -49 -93
-17 -17 17 -60 52 -96 79 -36 27 -72 56 -80 64 -9 8 -49 42 -90 75 -80 64
-218 182 -262 224 -14 15 -46 45 -71 69 -50 48 -52 72 -8 100 35 22 39 28 57
92 9 30 19 58 23 62 3 3 112 9 241 13 164 5 241 11 255 19 11 8 35 43 54 80
18 36 37 66 41 66 4 0 13 13 18 29 6 18 37 49 79 80 37 28 73 55 80 61 7 5 15
10 19 10 9 0 94 90 94 100 0 4 14 13 30 19 17 5 30 14 31 18 1 4 2 22 4 40 4
50 91 153 160 190 84 45 210 56 280 24z m575 -51 c0 -5 -5 -10 -11 -10 -5 0
-7 5 -4 10 3 6 8 10 11 10 2 0 4 -4 4 -10z m510 -125 c0 -16 -30 -35 -54 -35
-25 0 -19 18 12 34 35 19 42 19 42 1z m1597 9 c-3 -3 -12 -4 -19 -1 -8 3 -5 6
6 6 11 1 17 -2 13 -5z m-453 -69 c-23 -18 -47 -19 -42 -3 4 12 49 28 57 21 3
-2 -4 -10 -15 -18z m240 6 c3 -5 0 -14 -7 -19 -10 -8 -13 -6 -14 9 -2 19 11
26 21 10z m-294 -26 c0 -9 -10 -15 -26 -15 -14 0 -23 4 -19 10 4 6 11 8 16 5
5 -4 9 -1 9 4 0 6 5 11 10 11 6 0 10 -7 10 -15z m210 -20 c-7 -9 -15 -13 -18
-10 -3 2 1 11 8 20 7 9 15 13 18 10 3 -2 -1 -11 -8 -20z m-270 -11 c0 -7 -4
-16 -10 -19 -5 -3 -10 -1 -10 4 0 20 -25 11 -35 -11 -6 -13 -18 -24 -29 -26
-11 -3 -16 0 -12 7 4 6 0 11 -9 11 -12 0 -15 -6 -10 -20 5 -15 1 -22 -17 -29
-24 -9 -38 1 -38 28 0 8 7 11 19 8 14 -3 18 -1 14 9 -4 10 5 14 33 14 29 0 35
3 26 12 -9 9 -6 14 11 23 27 14 67 7 67 -11z m570 -53 c0 -6 -4 -13 -10 -16
-5 -3 -10 1 -10 9 0 9 5 16 10 16 6 0 10 -4 10 -9z m-620 -11 c0 -5 -4 -10
-10 -10 -5 0 -10 5 -10 10 0 6 5 10 10 10 6 0 10 -4 10 -10z m-1755 -20 c0 -7
-6 -15 -12 -17 -8 -3 -13 4 -13 17 0 13 5 20 13 18 6 -3 12 -11 12 -18z m1610
0 c-3 -5 -10 -10 -16 -10 -5 0 -9 5 -9 10 0 6 7 10 16 10 8 0 12 -4 9 -10z
m115 0 c0 -5 -5 -10 -11 -10 -5 0 -7 5 -4 10 3 6 8 10 11 10 2 0 4 -4 4 -10z
m1313 -25 c-3 -9 -8 -14 -10 -11 -3 3 -2 9 2 15 9 16 15 13 8 -4z m-1053 -5
c0 -5 -5 -10 -11 -10 -5 0 -7 5 -4 10 3 6 8 10 11 10 2 0 4 -4 4 -10z m-420
-4 c0 -3 -4 -8 -10 -11 -5 -3 -10 -1 -10 4 0 6 5 11 10 11 6 0 10 -2 10 -4z
m206 -21 c-9 -9 -14 -21 -11 -25 8 -13 35 0 35 16 0 8 5 14 11 14 5 0 8 4 5 9
-3 4 7 6 22 3 19 -4 22 -7 9 -10 -12 -2 -15 -10 -11 -27 3 -13 1 -32 -6 -42
-10 -15 -11 -16 -6 -1 8 28 -13 32 -34 6 -19 -23 -19 -23 0 -37 21 -14 28 -51
10 -51 -5 0 -10 7 -10 15 0 8 -4 15 -9 15 -17 0 -22 -19 -11 -41 11 -19 10
-20 -9 -9 -20 10 -25 7 -22 -14 3 -15 -22 -37 -35 -32 -7 3 -16 1 -19 -4 -11
-18 -26 -10 -23 13 2 16 9 21 26 19 14 -2 22 2 23 12 3 33 4 37 19 47 11 8 12
12 3 16 -7 2 -13 13 -13 24 0 10 -6 19 -13 19 -9 0 -12 11 -9 36 3 24 8 34 18
30 7 -3 26 1 41 9 32 17 42 12 19 -10z m154 -21 c0 -17 -10 -17 -32 0 -25 18
-22 24 7 18 14 -2 25 -11 25 -18z m-2210 6 c0 -5 -4 -10 -10 -10 -5 0 -10 5
-10 10 0 6 5 10 10 10 6 0 10 -4 10 -10z m1596 -17 c-10 -10 -19 5 -10 18 6
11 8 11 12 0 2 -7 1 -15 -2 -18z m191 21 c-3 -3 -12 -4 -19 -1 -8 3 -5 6 6 6
11 1 17 -2 13 -5z m173 -19 c-12 -15 -30 -12 -30 6 0 5 10 9 21 9 18 0 19 -2
9 -15z m-293 -27 c-3 -8 -6 -5 -6 6 -1 11 2 17 5 13 3 -3 4 -12 1 -19z m237 7
c-6 -16 -34 -21 -34 -7 0 13 11 22 26 22 8 0 11 -6 8 -15z m276 -5 c0 -5 -8
-10 -17 -10 -15 0 -16 2 -3 10 19 12 20 12 20 0z m-239 -54 c-15 -18 -16 -18
-20 0 -2 10 2 20 8 22 6 2 11 11 12 20 0 14 2 13 9 -3 5 -14 2 -26 -9 -39z
m279 34 c0 -5 -2 -10 -4 -10 -3 0 -8 5 -11 10 -3 6 -1 10 4 10 6 0 11 -4 11
-10z m105 -10 c3 -5 1 -10 -4 -10 -6 0 -11 5 -11 10 0 6 2 10 4 10 3 0 8 -4
11 -10z m-720 -49 c29 -42 116 -293 135 -383 8 -41 16 -58 27 -58 13 0 13 -2
2 -16 -11 -14 -11 -18 1 -28 12 -9 14 -37 12 -146 -3 -134 -10 -160 -41 -160
-14 -1 -14 -2 1 -11 9 -5 15 -16 12 -23 -4 -9 3 -16 17 -18 33 -5 35 -26 3
-38 -52 -20 -172 11 -207 53 -25 31 -57 80 -57 90 0 12 45 8 58 -5 21 -21 14
8 -16 75 -16 34 -41 114 -57 177 -15 63 -34 120 -42 127 -8 6 -12 16 -8 22 3
6 0 11 -8 11 -8 0 -29 13 -46 29 -36 33 -41 77 -15 126 9 17 13 40 9 55 -10
39 -46 91 -69 100 -17 6 -9 10 39 20 33 6 83 18 110 25 90 24 111 20 140 -24z
m385 29 c0 -5 -4 -10 -10 -10 -5 0 -10 5 -10 10 0 6 5 10 10 10 6 0 10 -4 10
-10z m160 -11 c0 -5 -4 -9 -10 -9 -5 0 -10 7 -10 16 0 8 5 12 10 9 6 -3 10
-10 10 -16z m169 -20 c-16 -10 -23 -4 -14 10 3 6 11 8 17 5 6 -4 5 -9 -3 -15z
m-119 -9 c0 -5 -10 -10 -22 -9 -22 0 -22 1 -3 9 11 5 21 9 23 9 1 1 2 -3 2 -9z
m-230 -4 c0 -3 -4 -8 -10 -11 -5 -3 -10 -1 -10 4 0 6 5 11 10 11 6 0 10 -2 10
-4z m-155 -16 c3 -5 -1 -10 -10 -10 -9 0 -13 5 -10 10 3 6 8 10 10 10 2 0 7
-4 10 -10z m397 -29 c-9 -10 -21 -16 -26 -13 -4 2 -12 -2 -17 -9 -7 -11 -9
-10 -9 4 0 9 7 17 15 17 9 0 18 6 21 14 3 8 12 12 19 10 11 -4 10 -9 -3 -23z
m568 -6 c0 -8 -7 -15 -16 -15 -14 0 -14 3 -4 15 7 8 14 15 16 15 2 0 4 -7 4
-15z m-880 -25 c0 -5 -2 -10 -4 -10 -3 0 -8 5 -11 10 -3 6 -1 10 4 10 6 0 11
-4 11 -10z m63 -17 c-7 -2 -19 -2 -25 0 -7 3 -2 5 12 5 14 0 19 -2 13 -5z m77
-25 c0 -5 -4 -8 -10 -8 -5 0 -10 10 -10 23 0 18 2 19 10 7 5 -8 10 -18 10 -22z
m-290 18 c0 -2 -7 -6 -15 -10 -8 -3 -15 -1 -15 4 0 6 7 10 15 10 8 0 15 -2 15
-4z m575 -17 c-8 -12 -35 -12 -35 0 0 11 22 20 33 14 4 -2 5 -9 2 -14z m-340
1 c3 -5 1 -10 -4 -10 -6 0 -11 5 -11 10 0 6 2 10 4 10 3 0 8 -4 11 -10z m-85
-107 c-11 -17 -11 -17 -6 0 3 10 7 26 7 35 1 15 2 15 6 0 2 -10 -1 -25 -7 -35z
m140 35 c0 -5 -6 -8 -14 -8 -8 0 -16 -6 -18 -12 -3 -7 -7 -3 -10 9 -5 17 -1
20 18 19 13 0 24 -4 24 -8z m-80 -40 c0 -5 5 -6 10 -3 6 3 10 1 10 -5 0 -7 -7
-10 -15 -6 -9 3 -15 0 -15 -9 0 -8 -4 -15 -10 -15 -5 0 -10 11 -10 23 0 14 6
24 15 24 8 0 15 -4 15 -9z m-180 -13 c0 -8 -4 -15 -8 -15 -5 0 -9 7 -9 15 0 8
4 15 9 15 4 0 8 -7 8 -15z m15 -85 c-3 -5 -11 -10 -16 -10 -6 0 -7 5 -4 10 3
6 11 10 16 10 6 0 7 -4 4 -10z m565 -4 c0 -2 -7 -7 -16 -10 -8 -3 -12 -2 -9 4
6 10 25 14 25 6z m-107 -134 c-14 -28 -29 -49 -34 -47 -4 3 -5 14 -1 24 8 21
54 83 58 78 2 -1 -9 -26 -23 -55z m-40 -77 c-3 -9 -8 -14 -10 -11 -3 3 -2 9 2
15 9 16 15 13 8 -4z m-756 -81 c-3 -3 -12 -4 -19 -1 -8 3 -5 6 6 6 11 1 17 -2
13 -5z m2293 -124 c0 -5 -4 -10 -10 -10 -5 0 -10 5 -10 10 0 6 5 10 10 10 6 0
10 -4 10 -10z m35 0 c3 -5 -1 -10 -9 -10 -9 0 -16 5 -16 10 0 6 4 10 9 10 6 0
13 -4 16 -10z m-30 -29 c3 -5 1 -12 -5 -16 -5 -3 -10 1 -10 9 0 18 6 21 15 7z
m-2345 -37 c0 -2 -7 -4 -15 -4 -8 0 -15 4 -15 10 0 5 7 7 15 4 8 -4 15 -8 15
-10z m-2130 -8 c0 -3 -4 -8 -10 -11 -5 -3 -10 -1 -10 4 0 6 5 11 10 11 6 0 10
-2 10 -4z m2190 -6 c0 -5 -4 -10 -10 -10 -5 0 -10 5 -10 10 0 6 5 10 10 10 6
0 10 -4 10 -10z m27 -12 c-3 -8 -6 -5 -6 6 -1 11 2 17 5 13 3 -3 4 -12 1 -19z
m-94 -29 c4 -16 3 -18 -9 -8 -7 6 -11 15 -8 20 8 13 11 11 17 -12z m70 -26
c-3 -7 0 -13 6 -13 6 0 11 -4 11 -10 0 -16 -27 -11 -34 6 -3 8 -3 27 1 42 6
24 7 24 13 7 4 -11 5 -26 3 -32z m45 -6 c2 -15 -1 -27 -7 -27 -6 0 -11 3 -11
8 0 4 -3 18 -7 31 -4 18 -2 23 8 19 8 -2 15 -17 17 -31z m2 -57 c0 -5 -7 -10
-15 -10 -8 0 -15 5 -15 10 0 6 7 10 15 10 8 0 15 -4 15 -10z m-83 -26 c-3 -3
-12 -4 -19 -1 -8 3 -5 6 6 6 11 1 17 -2 13 -5z m68 -3 c3 -5 1 -12 -5 -16 -5
-3 -10 1 -10 9 0 18 6 21 15 7z m-2338 -37 c-3 -3 -12 -4 -19 -1 -8 3 -5 6 6
6 11 1 17 -2 13 -5z m-117 -15 c0 -6 15 -9 34 -8 19 2 40 -2 49 -9 11 -9 22
-10 42 -2 23 9 28 7 32 -10 6 -22 14 -25 29 -10 12 12 47 2 38 -11 -3 -5 -13
-9 -22 -9 -28 0 -66 -30 -53 -43 6 -6 11 -20 11 -31 0 -18 6 -21 41 -20 29 0
43 -4 50 -18 5 -10 7 -22 4 -27 -3 -5 1 -11 7 -14 7 -2 -6 -4 -29 -4 -24 1
-43 4 -43 8 0 13 -39 17 -56 4 -15 -10 -20 -10 -33 5 -12 13 -26 17 -55 13
-26 -4 -34 -8 -25 -14 10 -6 8 -9 -9 -9 -16 0 -26 7 -29 20 -6 24 -11 25 -35
3 -18 -16 -19 -16 -25 5 -6 25 -14 27 -31 10 -9 -9 -12 -8 -12 6 0 9 5 14 10
11 6 -3 10 1 10 9 0 19 -10 20 -45 4 -17 -7 -22 -14 -14 -19 8 -4 1 -13 -20
-23 -35 -19 -41 -45 -11 -53 18 -5 29 -33 13 -33 -13 0 -43 33 -43 47 0 8 -5
11 -10 8 -6 -4 -10 -12 -9 -18 3 -23 -1 -37 -10 -37 -17 0 -9 64 9 82 10 9 21
14 24 11 3 -4 6 -1 6 5 0 5 -5 12 -11 14 -6 2 2 10 18 18 15 8 30 18 33 21 15
18 154 129 161 129 5 0 9 -5 9 -11z m2130 -3 c0 -11 -19 -15 -25 -6 -3 5 1 10
9 10 9 0 16 -2 16 -4z m290 -27 c0 -6 -4 -7 -10 -4 -5 3 -10 11 -10 16 0 6 5
7 10 4 6 -3 10 -11 10 -16z m-2153 -5 c-3 -3 -12 -4 -19 -1 -8 3 -5 6 6 6 11
1 17 -2 13 -5z m1993 -44 c0 -5 -4 -10 -10 -10 -5 0 -10 5 -10 10 0 6 5 10 10
10 6 0 10 -4 10 -10z m2620 -70 c0 -5 -4 -10 -10 -10 -5 0 -10 5 -10 10 0 6 5
10 10 10 6 0 10 -4 10 -10z m-2756 -25 c-4 -8 -8 -15 -10 -15 -2 0 -4 7 -4 15
0 8 4 15 10 15 5 0 7 -7 4 -15z m46 -4 c0 -14 -18 -23 -30 -16 -6 4 -8 11 -5
16 8 12 35 12 35 0z m45 -1 c3 -6 -1 -13 -10 -16 -19 -8 -30 0 -20 15 8 14 22
14 30 1z m-2335 -20 c0 -5 -15 -10 -32 -10 -25 0 -29 3 -18 10 20 13 50 13 50
0z m2411 -33 c-7 -7 -15 -6 -26 3 -12 10 -13 15 -3 21 17 11 42 -11 29 -24z
m-236 -46 c3 -5 1 -12 -4 -15 -5 -3 -11 1 -15 9 -6 16 9 21 19 6z m33 -44 c2
-12 -3 -17 -17 -17 -23 0 -24 1 -15 25 8 19 28 15 32 -8z m-39 -30 c-12 -11
-59 -16 -59 -7 0 15 43 30 54 19 5 -5 8 -10 5 -12z m2891 -208 c0 -6 -4 -7
-10 -4 -5 3 -10 11 -10 16 0 6 5 7 10 4 6 -3 10 -11 10 -16z m-2950 -79 c0 -5
-2 -10 -4 -10 -3 0 -8 5 -11 10 -3 6 -1 10 4 10 6 0 11 -4 11 -10z m2833 -57
c7 -9 5 -13 -7 -13 -11 0 -16 8 -15 28 0 15 3 21 6 12 3 -8 10 -21 16 -27z
m-2987 -31 c-14 -15 -18 -15 -26 -2 -11 18 -2 33 16 26 8 -3 14 0 15 7 0 8 2
8 6 -1 3 -8 -2 -21 -11 -30z"/>
<path d="M3135 7000 c3 -5 11 -10 16 -10 6 0 7 5 4 10 -3 6 -11 10 -16 10 -6
0 -7 -4 -4 -10z"/>
<path d="M2990 6810 c0 -5 5 -10 10 -10 6 0 10 5 10 10 0 6 -4 10 -10 10 -5 0
-10 -4 -10 -10z"/>
<path d="M3001 6524 c-18 -21 -6 -30 14 -11 8 9 15 18 15 21 0 11 -15 5 -29
-10z"/>
<path d="M3367 6464 c-3 -3 6 -18 20 -32 15 -15 21 -28 15 -30 -13 -4 -46 25
-55 48 -3 9 -6 4 -6 -11 -1 -17 6 -30 17 -34 16 -7 15 -8 -3 -15 -13 -5 -24
-3 -32 7 -6 8 -16 12 -22 8 -16 -10 -13 -25 5 -25 11 0 15 -6 11 -20 -3 -11
-1 -23 4 -26 5 -3 9 2 9 11 0 27 23 11 26 -18 1 -15 10 -34 18 -43 9 -8 16
-22 16 -30 0 -11 4 -12 19 -5 24 13 55 -8 45 -32 -3 -9 -10 -15 -14 -12 -5 3
-3 -6 3 -20 7 -14 18 -25 25 -25 7 0 10 5 7 10 -8 13 -3 13 32 -1 38 -15 104
-18 100 -5 -2 6 -18 12 -35 14 -18 2 -32 8 -32 13 0 5 -10 14 -22 19 -13 5
-17 9 -10 9 6 1 12 8 12 16 0 11 7 13 29 9 16 -3 39 0 52 7 26 14 83 13 108
-1 14 -8 14 -9 1 -10 -13 0 -13 -1 0 -10 22 -14 30 -12 23 6 -5 13 -1 15 23
10 16 -3 35 -2 43 3 10 6 4 12 -22 20 -36 12 -61 51 -38 59 14 5 15 42 1 42
-5 0 -10 -6 -11 -12 0 -7 -4 -4 -8 7 -11 26 -3 39 15 24 12 -10 13 -9 8 5 -4
10 -13 15 -21 12 -8 -3 -19 -6 -24 -6 -6 0 -8 -4 -4 -9 3 -5 1 -12 -4 -15 -12
-8 -22 20 -14 42 6 15 5 15 -10 3 -12 -10 -21 -10 -30 -3 -8 7 -27 8 -47 4
-42 -9 -82 -4 -75 9 4 5 18 9 33 10 l27 1 -25 7 c-14 4 -30 4 -37 -1 -7 -5
-14 -5 -18 2 -9 15 -25 12 -25 -5 0 -8 -4 -15 -10 -15 -5 0 -10 7 -10 15 0 21
-30 31 -40 15 -7 -11 -12 -11 -23 -2 -7 7 -17 9 -20 6z m261 -125 c27 -9 49
-35 39 -46 -2 -2 -28 7 -57 20 -34 15 -49 26 -39 30 21 8 23 8 57 -4z"/>
<path d="M3595 6450 c-3 -5 -1 -10 4 -10 6 0 11 5 11 10 0 6 -2 10 -4 10 -3 0
-8 -4 -11 -10z"/>
<path d="M3760 6379 c0 -5 5 -7 10 -4 6 3 10 8 10 11 0 2 -4 4 -10 4 -5 0 -10
-5 -10 -11z"/>
<path d="M3752 6324 c-11 -12 -9 -14 8 -14 11 0 20 4 20 9 0 17 -15 19 -28 5z"/>
<path d="M3765 6210 c-3 -5 3 -10 15 -10 12 0 18 5 15 10 -3 6 -10 10 -15 10
-5 0 -12 -4 -15 -10z"/>
<path d="M3658 6153 c7 -3 16 -2 19 1 4 3 -2 6 -13 5 -11 0 -14 -3 -6 -6z"/>
<path d="M3515 6140 c-3 -5 1 -10 10 -10 9 0 13 5 10 10 -3 6 -8 10 -10 10 -2
0 -7 -4 -10 -10z"/>
<path d="M3878 6143 c7 -3 16 -2 19 1 4 3 -2 6 -13 5 -11 0 -14 -3 -6 -6z"/>
<path d="M3550 6126 c0 -9 5 -16 10 -16 6 0 10 4 10 9 0 6 -4 13 -10 16 -5 3
-10 -1 -10 -9z"/>
<path d="M4170 5920 c-6 -11 -7 -20 -2 -20 10 0 32 21 32 32 0 16 -19 8 -30
-12z"/>
<path d="M3731 5856 c-26 -28 -18 -35 13 -11 10 7 16 19 14 25 -2 6 -14 0 -27
-14z"/>
<path d="M3800 5870 c0 -5 5 -10 10 -10 6 0 10 5 10 10 0 6 -4 10 -10 10 -5 0
-10 -4 -10 -10z"/>
<path d="M3730 5740 c0 -5 5 -10 10 -10 6 0 10 5 10 10 0 6 -4 10 -10 10 -5 0
-10 -4 -10 -10z"/>
<path d="M3701 5634 c0 -11 3 -14 6 -6 3 7 2 16 -1 19 -3 4 -6 -2 -5 -13z"/>
<path d="M3079 6164 c-5 -15 -7 -30 -3 -33 7 -7 34 28 34 46 0 23 -20 14 -31
-13z"/>
<path d="M3307 4380 c-3 -11 -1 -20 4 -20 5 0 9 9 9 20 0 11 -2 20 -4 20 -2 0
-6 -9 -9 -20z"/>
<path d="M3315 4330 c3 -5 8 -10 11 -10 2 0 4 5 4 10 0 6 -5 10 -11 10 -5 0
-7 -4 -4 -10z"/>
<path d="M1392 1820 c0 -14 2 -19 5 -12 2 6 2 18 0 25 -3 6 -5 1 -5 -13z"/>
<path d="M1082 1818 c9 -7 24 -18 34 -24 37 -22 4 -34 -94 -35 -53 0 -91 -3
-84 -6 6 -2 12 -14 12 -25 0 -20 4 -21 68 -15 37 4 84 7 105 7 36 0 37 1 35
33 -2 43 -14 66 -36 65 -9 0 -26 3 -37 6 -18 7 -18 6 -3 -6z"/>
<path d="M1293 1473 c9 -2 23 -2 30 0 6 3 -1 5 -18 5 -16 0 -22 -2 -12 -5z"/>
<path d="M1803 1466 c3 -8 -8 -27 -27 -44 -18 -16 -41 -40 -52 -54 -11 -14
-33 -32 -49 -42 l-30 -16 45 3 c36 1 44 5 42 19 -1 9 10 29 25 44 24 24 30 26
55 16 15 -5 28 -8 28 -6 0 23 -25 94 -32 94 -6 0 -8 -6 -5 -14z"/>
<path d="M1897 1423 c-4 -3 -7 -22 -7 -41 0 -20 -5 -51 -12 -69 -14 -39 -3
-53 41 -53 14 0 32 -6 40 -13 39 -33 107 -48 260 -57 86 -5 184 -12 219 -16
74 -8 87 10 15 21 -55 8 -74 17 -123 56 -28 21 -40 25 -54 17 -10 -6 -40 -8
-67 -6 -32 3 -50 1 -53 -7 -2 -7 -24 -17 -48 -24 -57 -16 -119 3 -125 39 -2
13 -12 32 -23 42 -11 10 -24 35 -30 56 -12 45 -24 65 -33 55z"/>
<path d="M1967 1360 c-3 -11 -2 -20 2 -20 3 0 12 9 19 20 10 16 10 20 -2 20
-7 0 -16 -9 -19 -20z"/>
<path d="M915 1160 c-12 -4 -26 -14 -33 -22 -10 -13 -2 -16 63 -21 66 -5 165
-29 250 -61 16 -6 86 -38 155 -72 136 -66 198 -94 205 -94 3 0 5 8 5 18 0 12
-28 31 -92 62 -51 25 -95 47 -98 50 -3 3 -25 15 -50 26 -40 19 -64 30 -145 65
-69 29 -100 38 -152 44 -32 4 -65 8 -73 10 -8 2 -24 0 -35 -5z"/>
<path d="M1533 1068 c-2 -5 9 -8 25 -8 16 0 44 -3 61 -6 19 -4 31 -2 31 4 0
12 -110 21 -117 10z"/>
<path d="M2583 1053 c15 -2 37 -2 50 0 12 2 0 4 -28 4 -27 0 -38 -2 -22 -4z"/>
<path d="M1498 1013 c7 -3 16 -2 19 1 4 3 -2 6 -13 5 -11 0 -14 -3 -6 -6z"/>
<path d="M3556 1951 c-4 -7 -5 -15 -2 -18 9 -9 19 4 14 18 -4 11 -6 11 -12 0z"/>
<path d="M720 650 c0 -5 5 -10 10 -10 6 0 10 5 10 10 0 6 -4 10 -10 10 -5 0
-10 -4 -10 -10z"/>
<path d="M1750 220 c0 -5 5 -10 11 -10 5 0 7 5 4 10 -3 6 -8 10 -11 10 -2 0
-4 -4 -4 -10z"/>
</g>
</svg>
